# xmcd
#
# Track frame offsets:
#	150
#	13285
#	27637
#	44290
#	59505
#	74560
#	93490
#	106970
#	125777
#	139205
#	152757
#	167592
#	181302
#	193805
#
# Disc length: 2874 seconds
#
# Revision: 2
# Processed by: cddbd v1.4PL0 Copyright (c) Steve Scherf et al.
# Submitted via: audiograbber 1.82.02
#
DISCID=d30b380e
DTITLE=V. A. - Mr Music Greatest Country Hits
DYEAR=1996
DGENRE=Country
TTITLE0=Waylon Jennings and Willie Nelson - Good Hearted Woman
TTITLE1=David Allan Coe - Wille, Waylon And Me
TTITLE2=Donna Fargo - U.S. Of A.
TTITLE3=Johnny Horton - Up North
TTITLE4=Emmylou Harris - Cèst La Vie (You Never Can Tell)
TTITLE5=Merle Haggard - Are The Good Times Really Over (I Wish A Buck Was Still
TTITLE5=Silver)
TTITLE6=Dolly Parton - My Tennessee Mountain Home
TTITLE7=Marty Robbins - El Paso City
TTITLE8=Randy Travis - Diggin`Up Bones
TTITLE9=George Jones and Tammy Wynette - Golden Ring
TTITLE10=George Strait - All My Ex's Live In Texas
TTITLE11=Dwight Yoakam - Guitars, Cadillacs
TTITLE12=Conway Twitty - I Can`t Stop Loving You
TTITLE13=Tanya Tucker - Texas (When I Die)
EXTD=
EXTT0=
EXTT1=
EXTT2=
EXTT3=
EXTT4=
EXTT5=
EXTT6=
EXTT7=
EXTT8=
EXTT9=
EXTT10=
EXTT11=
EXTT12=
EXTT13=
PLAYORDER=
